<?xml version="1.0" encoding="utf-8"?>

<!DOCTYPE svg PUBLIC "-//W3C//DTD SVG 1.1//EN" "http://www.w3.org/Graphics/SVG/1.1/DTD/svg11.dtd">
<svg version="1.1" id="Layer_1" xmlns="http://www.w3.org/2000/svg" xmlns:xlink="http://www.w3.org/1999/xlink" x="0px" y="0px"
	 viewBox="0 0 1641.482 1641.482" enable-background="new 0 0 1641.482 1641.482" xml:space="preserve">
<g id="layer1" transform="translate(-147.7 -99.68)">
	<path id="path3122" d="M1404.824,343.553l-11.375,11.375l-0.018,80.22l22.672,22.672V354.831L1404.824,343.553L1404.824,343.553z
		 M1205.204,236.937l-7.303,14.334l24.772,76.299l28.568,14.556l-31.825-97.948L1205.204,236.937L1205.204,236.937z
		 M982.408,197.225l-2.517,15.889l47.138,64.91l31.668,5.016l-60.535-83.319L982.408,197.225L982.408,197.225z M758.245,228.305
		l2.517,15.889l64.889,47.167l31.668-5.016l-83.319-60.535L758.245,228.305L758.245,228.305z M554.657,327.134l7.303,14.334
		l76.288,24.806l28.568-14.556l-97.948-31.825L554.657,327.134L554.657,327.134z M391.573,484.038l11.375,11.375l80.22,0.018
		l22.672-22.672H402.851L391.573,484.038L391.573,484.038z M284.957,683.658l14.334,7.303l76.299-24.772l14.556-28.568
		l-97.948,31.825L284.957,683.658L284.957,683.658z M245.245,906.454l15.889,2.517l64.91-47.138l5.016-31.668L247.74,890.7
		L245.245,906.454L245.245,906.454z M276.325,1130.618l15.889-2.517l47.167-64.889l-5.016-31.668l-60.535,83.319L276.325,1130.618
		L276.325,1130.618z M375.154,1334.206l14.334-7.303l24.806-76.288l-14.556-28.568l-31.825,97.948L375.154,1334.206
		L375.154,1334.206z M532.058,1497.289l11.375-11.375l0.018-80.22l-22.672-22.672v102.988L532.058,1497.289L532.058,1497.289z
		 M731.678,1603.905l7.303-14.334l-24.772-76.299l-28.568-14.556l31.825,97.948L731.678,1603.905L731.678,1603.905z
		 M954.474,1643.617l2.517-15.889l-47.138-64.91l-31.668-5.016l60.535,83.319L954.474,1643.617L954.474,1643.617z
		 M1178.638,1612.537l-2.517-15.889l-64.889-47.167l-31.668,5.016l83.319,60.535L1178.638,1612.537L1178.638,1612.537z
		 M1382.226,1513.708l-7.303-14.333l-76.288-24.806l-28.568,14.556l97.948,31.825L1382.226,1513.708L1382.226,1513.708z
		 M1545.309,1356.804l-11.375-11.375l-80.22-0.018l-22.672,22.672h102.988L1545.309,1356.804L1545.309,1356.804z M1651.925,1157.184
		l-14.334-7.303l-76.299,24.772l-14.556,28.568l97.948-31.825L1651.925,1157.184L1651.925,1157.184z M1691.637,934.388
		l-15.889-2.517l-64.91,47.138l-5.016,31.668l83.319-60.535L1691.637,934.388L1691.637,934.388z M1660.557,710.225l-15.889,2.517
		l-47.167,64.889l5.016,31.668l60.535-83.319L1660.557,710.225L1660.557,710.225z M1561.728,506.637l-14.334,7.303l-24.806,76.288
		l14.556,28.568l31.825-97.948L1561.728,506.637L1561.728,506.637z M1545.31,484.038l-11.279-11.279h-102.988l22.672,22.672
		l80.22-0.018L1545.31,484.038L1545.31,484.038z M1382.226,327.134l-14.212-7.242l-97.948,31.825l28.568,14.556l76.288-24.806
		L1382.226,327.134L1382.226,327.134z M1178.638,228.305l-15.755-2.495l-83.319,60.535l31.668,5.016l64.889-47.167L1178.638,228.305
		L1178.638,228.305z M954.475,197.225l-15.755,2.495l-60.535,83.319l31.668-5.016l47.138-64.91L954.475,197.225L954.475,197.225z
		 M731.679,236.937l-14.212,7.242l-31.825,97.948l28.568-14.556l24.772-76.299L731.679,236.937L731.679,236.937z M532.058,343.552
		l-11.279,11.279V457.82l22.672-22.672l-0.018-80.22L532.058,343.552L532.058,343.552z M375.154,506.636l-7.242,14.212
		l31.825,97.948l14.556-28.568l-24.806-76.288L375.154,506.636L375.154,506.636z M276.325,710.224l-2.495,15.755l60.535,83.319
		l5.016-31.668l-47.167-64.889L276.325,710.224L276.325,710.224z M245.245,934.387l2.495,15.755l83.319,60.535l-5.016-31.668
		l-64.91-47.138L245.245,934.387L245.245,934.387z M284.957,1157.183l7.242,14.213l97.948,31.825l-14.556-28.568l-76.299-24.772
		L284.957,1157.183L284.957,1157.183z M391.572,1356.804l11.279,11.279H505.84l-22.672-22.672l-80.22,0.018L391.572,1356.804
		L391.572,1356.804z M554.656,1513.708l14.212,7.242l97.948-31.825l-28.568-14.556l-76.288,24.806L554.656,1513.708
		L554.656,1513.708z M758.244,1612.537l15.755,2.495l83.319-60.535l-31.668-5.016l-64.889,47.167L758.244,1612.537L758.244,1612.537
		z M982.407,1643.617l15.755-2.495l60.535-83.319l-31.668,5.016l-47.138,64.91L982.407,1643.617L982.407,1643.617z
		 M1205.203,1603.906l14.213-7.242l31.825-97.948l-28.568,14.556l-24.772,76.299L1205.203,1603.906L1205.203,1603.906z
		 M1404.824,1497.29l11.279-11.279v-102.988l-22.672,22.672l0.018,80.22L1404.824,1497.29L1404.824,1497.29z M1561.728,1334.206
		l7.242-14.213l-31.825-97.948l-14.556,28.568l24.806,76.288L1561.728,1334.206L1561.728,1334.206z M1660.557,1130.618l2.495-15.755
		l-60.535-83.319l-5.016,31.668l47.167,64.889L1660.557,1130.618L1660.557,1130.618z M1691.637,906.455l-2.495-15.755
		l-83.319-60.535l5.016,31.668l64.91,47.138L1691.637,906.455L1691.637,906.455z M1651.926,683.659l-7.242-14.212l-97.948-31.825
		l14.556,28.568l76.299,24.772L1651.926,683.659L1651.926,683.659z M1438.669,273.208v36.5l-17.898,17.88l17.898,17.889v104.717
		h104.717l17.889,17.898l17.88-17.898h36.5l-11.279,34.714l-22.547,11.474l11.494,22.544l-32.359,99.592l99.592,32.359l11.482,22.55
		l22.535-11.497l34.714,11.279l-21.454,29.529l-24.989,3.945l3.965,24.992l-61.551,84.718l84.718,61.551l3.952,24.994l24.985-3.97
		l29.529,21.454l-29.529,21.454l-24.985-3.97l-3.952,24.994l-84.718,61.551l61.551,84.718l-3.965,24.992l24.989,3.945l21.454,29.529
		l-34.714,11.279l-22.535-11.496l-11.482,22.55l-99.592,32.359l32.359,99.592l-11.494,22.544l22.547,11.474l11.279,34.714h-36.5
		l-17.88-17.898l-17.889,17.898h-104.717v104.717l-17.898,17.889l17.898,17.88v36.5l-34.714-11.279l-11.474-22.547l-22.544,11.494
		l-99.592-32.359l-32.359,99.592l-22.55,11.483l11.497,22.535l-11.279,34.714l-29.529-21.454l-3.945-24.989l-24.992,3.965
		l-84.718-61.551l-61.551,84.718l-24.994,3.952l3.97,24.985l-21.454,29.529l-21.454-29.529l3.97-24.985l-24.994-3.952
		l-61.551-84.718l-84.718,61.551l-24.992-3.965l-3.945,24.989l-29.529,21.454l-11.279-34.714l11.497-22.535l-22.55-11.483
		l-32.359-99.592l-99.592,32.359l-22.544-11.494l-11.474,22.547l-34.714,11.279v-36.5l17.898-17.88l-17.898-17.889v-104.717H393.496
		l-17.889-17.898l-17.88,17.898h-36.5l11.279-34.714l22.547-11.474l-11.494-22.544l32.359-99.592l-99.592-32.359l-11.483-22.55
		l-22.535,11.496l-34.714-11.279l21.454-29.529l24.989-3.945l-3.965-24.992l61.551-84.718L226.908,962.9l-3.952-24.994l-24.985,3.97
		l-29.529-21.454l29.529-21.454l24.985,3.97l3.952-24.994l84.718-61.551l-61.551-84.718l3.965-24.992l-24.989-3.945l-21.454-29.529
		l34.714-11.279l22.535,11.497l11.483-22.55l99.592-32.359l-32.359-99.592l11.494-22.544l-22.547-11.474l-11.279-34.714h36.5
		l17.88,17.898l17.889-17.898h104.717V345.476l17.898-17.889l-17.898-17.88v-36.5l34.714,11.279l11.474,22.547l22.544-11.494
		l99.592,32.359l32.359-99.592l22.55-11.483l-11.497-22.535l11.279-34.714l29.529,21.454l3.945,24.989l24.992-3.965l84.718,61.551
		l61.551-84.718l24.994-3.952l-3.97-24.985l21.454-29.529l21.454,29.529l-3.97,24.985l24.994,3.952l61.551,84.718l84.718-61.551
		l24.992,3.965l3.945-24.989l29.529-21.454l11.279,34.714l-11.497,22.535l22.55,11.483l32.359,99.592l99.592-32.359l22.544,11.494
		l11.474-22.547L1438.669,273.208z M1370.855,443.159l0.042-76.671l-72.905,23.733l-94.315-48.056l-23.652-72.931l-62.003,45.1
		l-104.549-16.559l-45.032-62.053l-45.032,62.053l-104.549,16.559l-62.003-45.1l-23.653,72.931l-94.315,48.056l-72.905-23.733
		l0.042,76.671l-74.848,74.849l-76.671-0.042l23.733,72.905l-48.056,94.315l-72.931,23.652l45.1,62.003l-16.559,104.549
		l-62.053,45.032l62.053,45.032l16.559,104.549l-45.1,62.003l72.931,23.652l48.056,94.315l-23.733,72.905l76.671-0.042
		l74.848,74.849l-0.042,76.671l72.905-23.733l94.315,48.056l23.653,72.931l62.003-45.1l104.549,16.559l45.032,62.053l45.032-62.053
		l104.549-16.559l62.003,45.1l23.652-72.931l94.315-48.056l72.905,23.733l-0.042-76.671l74.849-74.849l76.671,0.042l-23.733-72.905
		l48.056-94.315l72.932-23.652l-45.1-62.003l16.559-104.549l62.053-45.032l-62.053-45.032l-16.559-104.549l45.1-62.003
		l-72.932-23.652l-48.056-94.315l23.733-72.905l-76.671,0.042L1370.855,443.159z"/>
</g>
</svg>
